<svg width="612" height="612" xmlns="http://www.w3.org/2000/svg">

 <g>
  <title>background</title>
  <rect fill="none" id="canvas_background" height="602" width="802" y="-1" x="-1"/>
 </g>
 <g>
  <title>Layer 1</title>
  <g fill="#3d5cbf" id="svg_1">
   <g id="_x38__3_">
    <g id="svg_2">
     <path fill="#3d5cbf" id="svg_3" d="m306,0c-169.008,0 -306,136.992 -306,306s136.992,306 306,306s306,-137.012 306,-306s-136.992,-306 -306,-306zm0,573.75c-147.875,0 -267.75,-119.875 -267.75,-267.75c0,-147.875 119.875,-267.75 267.75,-267.75c147.875,0 267.75,119.875 267.75,267.75c0,147.875 -119.875,267.75 -267.75,267.75zm114.75,-286.875l-95.625,0l0,-95.625c0,-10.557 -8.568,-19.125 -19.125,-19.125c-10.557,0 -19.125,8.568 -19.125,19.125l0,95.625l-95.625,0c-10.557,0 -19.125,8.568 -19.125,19.125c0,10.557 8.568,19.125 19.125,19.125l95.625,0l0,95.625c0,10.557 8.568,19.125 19.125,19.125c10.557,0 19.125,-8.568 19.125,-19.125l0,-95.625l95.625,0c10.557,0 19.125,-8.568 19.125,-19.125c0,-10.557 -8.568,-19.125 -19.125,-19.125z"/>
    </g>
   </g>
  </g>
  <g id="svg_4"/>
  <g id="svg_5"/>
  <g id="svg_6"/>
  <g id="svg_7"/>
  <g id="svg_8"/>
  <g id="svg_9"/>
  <g id="svg_10"/>
  <g id="svg_11"/>
  <g id="svg_12"/>
  <g id="svg_13"/>
  <g id="svg_14"/>
  <g id="svg_15"/>
  <g id="svg_16"/>
  <g id="svg_17"/>
  <g id="svg_18"/>
 </g>
</svg>