<svg xmlns="http://www.w3.org/2000/svg" height="70" width="70" style=""><rect id="backgroundrect" width="100%" height="100%" x="0" y="0" fill="none" stroke="none"/><g class="currentLayer" style=""><title>Layer 1</title><path d="m69,53.44 a1,1 0 0 1 -1,-1 v-2.91 a1,1 0 0 1 2,0 v2.91 a1,1 0 0 1 -1,1 z" id="svg_1" class=""/><path d="m67.21164020895958,69.47089946269989 h-64 a3,3 0 0 1 -3,-3 v-44 a1,1 0 0 1 1,-1 h68 a1,1 0 0 1 1,1 v9.56 a1,1 0 0 1 -2,0 v-8.56 h-66 v43 a1,1 0 0 0 1,1 h64 a1,1 0 0 0 1,-1 v-7.5600000000000005 a1,1 0 0 1 2,0 v7.5600000000000005 a3,3 0 0 1 -3,3 z" id="svg_2" class=""/><path d="m69,43.53 a1,1 0 0 1 -1,-1 v-2.9699999999999998 a1,1 0 0 1 2,0 v2.9699999999999998 a1,1 0 0 1 -1,1 z" id="svg_3" class=""/><path d="m52,9 h-34 a1,1 0 0 1 0,-2 h34 a1,1 0 0 1 0,2 z" id="svg_4" class=""/><path d="m69,24 h-68 a1,1 0 0 1 -1,-1 v-13 a3,3 0 0 1 3,-3 h8 a1,1 0 0 1 0,2 h-8 a1,1 0 0 0 -1,1 v12 h66 v-12 a1,1 0 0 0 -1,-1 h-8 a1,1 0 0 1 0,-2 h8 a3,3 0 0 1 3,3 v13 a1,1 0 0 1 -1,1 z" id="svg_5" class=""/><path d="m58,16 h-5 a2,2 0 0 1 -2,-2 v-12 a2,2 0 0 1 2,-2 h5 a2,2 0 0 1 2,2 v12 a2,2 0 0 1 -2,2 zm-5,-14 v12 h5 v-12 z" id="svg_6" class=""/><path d="m17,16 h-5 a2,2 0 0 1 -2,-2 v-12 a2,2 0 0 1 2,-2 h5 a2,2 0 0 1 2,2 v12 a2,2 0 0 1 -2,2 zm0,-14 h-5 v12 h5 z" id="svg_7" class=""/><path d="m59.25,37.5 h-5 a2,2 0 0 1 -2,-2 v-5 a2,2 0 0 1 2,-2 h5 a2,2 0 0 1 2,2 v5 a2,2 0 0 1 -2,2 zm-5,-7 v5 h5 v-5 z" id="svg_8" class=""/><path d="m44.75,37.5 h-5 a2,2 0 0 1 -2,-2 v-5 a2,2 0 0 1 2,-2 h5 a2,2 0 0 1 2,2 v5 a2,2 0 0 1 -2,2 zm-5,-7 v5 h5 v-5 z" id="svg_9" class=""/><path d="m30.25,37.5 h-5 a2,2 0 0 1 -2,-2 v-5 a2,2 0 0 1 2,-2 h5 a2,2 0 0 1 2,2 v5 a2,2 0 0 1 -2,2 zm-5,-7 v5 h5 v-5 z" id="svg_10" class=""/><path d="m59.25,50.5 h-5 a2,2 0 0 1 -2,-2 v-5 a2,2 0 0 1 2,-2 h5 a2,2 0 0 1 2,2 v5 a2,2 0 0 1 -2,2 zm-5,-7 v5 h5 v-5 z" id="svg_11" class=""/><path d="m44.75,50.5 h-5 a2,2 0 0 1 -2,-2 v-5 a2,2 0 0 1 2,-2 h5 a2,2 0 0 1 2,2 v5 a2,2 0 0 1 -2,2 zm-5,-7 v5 h5 v-5 z" id="svg_12" class=""/><path d="m30.25,50.5 h-5 a2,2 0 0 1 -2,-2 v-5 a2,2 0 0 1 2,-2 h5 a2,2 0 0 1 2,2 v5 a2,2 0 0 1 -2,2 zm-5,-7 v5 h5 v-5 z" id="svg_13" class=""/><path d="m15.75,50.5 h-5 a2,2 0 0 1 -2,-2 v-5 a2,2 0 0 1 2,-2 h5 a2,2 0 0 1 2,2 v5 a2,2 0 0 1 -2,2 zm-5,-7 v5 h5 v-5 z" id="svg_14" class=""/><path d="m44.75,63.5 h-5 a2,2 0 0 1 -2,-2 v-5 a2,2 0 0 1 2,-2 h5 a2,2 0 0 1 2,2 v5 a2,2 0 0 1 -2,2 zm-5,-7 v5 h5 v-5 z" id="svg_15" class=""/><path d="m30.25,63.5 h-5 a2,2 0 0 1 -2,-2 v-5 a2,2 0 0 1 2,-2 h5 a2,2 0 0 1 2,2 v5 a2,2 0 0 1 -2,2 zm-5,-7 v5 h5 v-5 z" id="svg_16" class=""/><path d="m15.75,63.5 h-5 a2,2 0 0 1 -2,-2 v-5 a2,2 0 0 1 2,-2 h5 a2,2 0 0 1 2,2 v5 a2,2 0 0 1 -2,2 zm-5,-7 v5 h5 v-5 z" id="svg_17" class=""/><path fill="#000000" fill-opacity="1" stroke="#222222" stroke-opacity="1" stroke-width="2" stroke-dasharray="none" stroke-linejoin="round" stroke-linecap="butt" stroke-dashoffset="" fill-rule="nonzero" opacity="1" marker-start="" marker-mid="" marker-end="" d="M68.96825536028051,32.21164021591187L68.96825536028051,60.99470957992613" id="svg_18"/><image xmlns:xlink="http://www.w3.org/1999/xlink" id="svg_20" x="-25" y="40" width="0" height="0" style="color: rgb(0, 0, 0);" xlink:href="logo/vector_paint_icon256.png"/><rect fill="#717787" stroke="#222222" stroke-width="2" stroke-linejoin="round" stroke-dashoffset="" fill-rule="nonzero" id="svg_23" x="25" y="30" width="6" height="6" style="color: rgb(113, 119, 135);"/><rect fill="#717787" stroke="#222222" stroke-width="3" stroke-linejoin="round" stroke-dashoffset="" fill-rule="nonzero" id="svg_25" x="39" y="30" width="6" height="6" style="color: rgb(113, 119, 135);"/><rect fill="#717787" stroke="#222222" stroke-width="5" stroke-linejoin="round" stroke-dashoffset="" fill-rule="nonzero" id="svg_27" x="54" y="31" width="6" height="5" style="color: rgb(113, 119, 135);"/><rect fill="#717787" stroke="#222222" stroke-width="5" stroke-linejoin="round" stroke-dashoffset="" fill-rule="nonzero" id="svg_29" x="40" y="31" width="6" height="5" style="color: rgb(113, 119, 135);"/><rect fill="#717787" stroke="#222222" stroke-width="5" stroke-linejoin="round" stroke-dashoffset="" fill-rule="nonzero" id="svg_31" x="25" y="31" width="7" height="5" style="color: rgb(113, 119, 135);"/><rect fill="#717787" stroke="#222222" stroke-width="5" stroke-linejoin="round" stroke-dashoffset="" fill-rule="nonzero" id="svg_33" x="40" y="44" width="6" height="5" style="color: rgb(113, 119, 135);"/><rect fill="#717787" stroke="#222222" stroke-width="5" stroke-linejoin="round" stroke-dashoffset="" fill-rule="nonzero" id="svg_35" x="54" y="44" width="7" height="5" style="color: rgb(113, 119, 135);"/><rect fill="#717787" stroke="#222222" stroke-width="5" stroke-linejoin="round" stroke-dashoffset="" fill-rule="nonzero" id="svg_37" x="25" y="44" width="7" height="5" style="color: rgb(113, 119, 135);"/><rect fill="#717787" stroke="#222222" stroke-width="5" stroke-linejoin="round" stroke-dashoffset="" fill-rule="nonzero" id="svg_39" x="11" y="44" width="6" height="5" style="color: rgb(113, 119, 135);"/><rect fill="#717787" stroke="#222222" stroke-width="5" stroke-linejoin="round" stroke-dashoffset="" fill-rule="nonzero" id="svg_41" x="40" y="57" width="6" height="5" style="color: rgb(113, 119, 135);"/><rect fill="#717787" stroke="#222222" stroke-width="5" stroke-linejoin="round" stroke-dashoffset="" fill-rule="nonzero" id="svg_43" x="25" y="57" width="6" height="5" style="color: rgb(113, 119, 135);"/><rect fill="#717787" stroke="#222222" stroke-width="5" stroke-linejoin="round" stroke-dashoffset="" fill-rule="nonzero" id="svg_45" x="11" y="57" width="6" height="5" style="color: rgb(113, 119, 135);"/><rect fill="#717787" stroke="#222222" stroke-width="5" stroke-linejoin="round" stroke-dashoffset="" fill-rule="nonzero" id="svg_47" x="12" y="2" width="5" height="12" style="color: rgb(113, 119, 135);"/><rect fill="#717787" stroke="#222222" stroke-width="5" stroke-linejoin="round" stroke-dashoffset="" fill-rule="nonzero" id="svg_19" x="53" y="2" width="5" height="12" style="color: rgb(113, 119, 135);"/><path fill="#717787" fill-opacity="1" stroke="#222222" stroke-opacity="1" stroke-width="3" stroke-dasharray="none" stroke-linejoin="round" stroke-linecap="butt" stroke-dashoffset="" fill-rule="nonzero" opacity="1" marker-start="" marker-mid="" marker-end="" d="M0.7142857287025564,22.68783049987774L70.02645643983985,22.899470715789604" id="svg_21"/><path fill="#717787" fill-opacity="1" stroke="#222222" stroke-opacity="1" stroke-width="3" stroke-dasharray="none" stroke-linejoin="round" stroke-linecap="butt" stroke-dashoffset="" fill-rule="nonzero" opacity="1" marker-start="" marker-mid="" marker-end="" d="M68.75661514436864,67.97883670501784L68.54497492845677,9.142856681518085" id="svg_24"/><path fill="#717787" fill-opacity="1" stroke="#222222" stroke-opacity="1" stroke-width="3" stroke-dasharray="none" stroke-linejoin="round" stroke-linecap="butt" stroke-dashoffset="" fill-rule="nonzero" opacity="1" marker-start="" marker-mid="" marker-end="" d="M0.7142857287025564,67.97883670501784L0.6084656207466281,67.97883670501784" id="svg_28"/><path fill="#717787" fill-opacity="1" stroke="#717787" stroke-opacity="1" stroke-width="3" stroke-dasharray="none" stroke-linejoin="miter" stroke-linecap="butt" stroke-dashoffset="" fill-rule="nonzero" opacity="1" marker-start="" marker-mid="" marker-end="" d="M0.8201058366584917,8.719576249694343L1.1375661605262977,68.93121767662124" id="svg_22"/><path fill="#717787" fill-opacity="1" stroke="#717787" stroke-opacity="1" stroke-width="3" stroke-dasharray="none" stroke-linejoin="miter" stroke-linecap="butt" stroke-dashoffset="" fill-rule="nonzero" opacity="1" marker-start="" marker-mid="" marker-end="" d="M1.7724868082619094,68.40211713684158L69.92063633188391,68.19047692092971" id="svg_30"/><path fill="#717787" fill-opacity="1" stroke="#717787" stroke-opacity="1" stroke-width="3" stroke-dasharray="none" stroke-linejoin="miter" stroke-linecap="butt" stroke-dashoffset="" fill-rule="nonzero" opacity="1" marker-start="" marker-mid="" marker-end="" d="M68.6507950364127,67.5555562731941L68.43915482050083,7.7671952780909335" id="svg_34"/><path fill="#717787" fill-opacity="1" stroke="#717787" stroke-opacity="1" stroke-width="3" stroke-dasharray="none" stroke-linejoin="miter" stroke-linecap="butt" stroke-dashoffset="" fill-rule="nonzero" opacity="1" marker-start="" marker-mid="" marker-end="" d="M0.5026455127906928,8.296295817870606L69.28571568414831,8.402115925826541" id="svg_38"/><path fill="#717787" fill-opacity="1" stroke="#717787" stroke-opacity="1" stroke-width="3" stroke-dasharray="none" stroke-linejoin="miter" stroke-linecap="butt" stroke-dashoffset="" fill-rule="nonzero" opacity="1" marker-start="" marker-mid="" marker-end="" d="M1.0317460525703623,22.47619028396587L68.3333347125449,22.370370176009935" id="svg_42"/><rect fill="#717787" stroke="#717787" stroke-width="3" stroke-dashoffset="" fill-rule="nonzero" id="svg_46" x="12" y="2" width="5" height="12" style="color: rgb(113, 119, 135);"/><rect fill="#717787" stroke="#717787" stroke-width="3" stroke-dashoffset="" fill-rule="nonzero" id="svg_49" x="52" y="1" width="7" height="14" style="color: rgb(113, 119, 135);"/><rect fill="#717787" stroke="#717787" stroke-width="3" stroke-dashoffset="" fill-rule="nonzero" id="svg_51" x="11" y="1" width="7" height="14" style="color: rgb(113, 119, 135);"/><rect fill="#717787" stroke="#717787" stroke-width="4" stroke-dashoffset="" fill-rule="nonzero" id="svg_53" x="54" y="30" width="7" height="7" style="color: rgb(113, 119, 135);"/><rect fill="#717787" stroke="#717787" stroke-width="4" stroke-dashoffset="" fill-rule="nonzero" id="svg_55" x="53" y="43" width="9" height="7" style="color: rgb(113, 119, 135);"/><rect fill="#717787" stroke="#717787" stroke-width="4" stroke-dashoffset="" fill-rule="nonzero" id="svg_57" x="39" y="43" width="8" height="7" style="color: rgb(113, 119, 135);"/><rect fill="#717787" stroke="#717787" stroke-width="4" stroke-dashoffset="" fill-rule="nonzero" id="svg_59" x="39" y="30" width="8" height="7" style="color: rgb(113, 119, 135);"/><rect fill="#717787" stroke="#717787" stroke-width="4" stroke-dashoffset="" fill-rule="nonzero" id="svg_26" x="24" y="30" width="9" height="7" style="color: rgb(113, 119, 135);"/><rect fill="#717787" stroke="#717787" stroke-width="4" stroke-dashoffset="" fill-rule="nonzero" id="svg_36" x="24" y="43" width="9" height="7" style="color: rgb(113, 119, 135);"/><rect fill="#717787" stroke="#717787" stroke-width="4" stroke-dashoffset="" fill-rule="nonzero" id="svg_44" x="10" y="43" width="8" height="7" style="color: rgb(113, 119, 135);"/><rect fill="#717787" stroke="#717787" stroke-width="4" stroke-dashoffset="" fill-rule="nonzero" id="svg_50" x="39" y="56" width="8" height="7" style="color: rgb(113, 119, 135);"/><rect fill="#717787" stroke="#717787" stroke-width="4" stroke-dashoffset="" fill-rule="nonzero" id="svg_54" x="24" y="56" width="8" height="7" style="color: rgb(113, 119, 135);"/><rect fill="#717787" stroke="#717787" stroke-width="4" stroke-dashoffset="" fill-rule="nonzero" id="svg_58" x="10" y="56" width="8" height="7" style="color: rgb(113, 119, 135);"/><rect fill="#717787" stroke="#717787" stroke-width="4" stroke-dashoffset="" fill-rule="nonzero" id="svg_32" x="62" y="37" width="0" height="1" style="color: rgb(113, 119, 135);"/><rect fill="#717787" stroke="#717787" stroke-width="4" stroke-dashoffset="" fill-rule="nonzero" id="svg_40" x="53" y="30" width="8" height="7" style="color: rgb(113, 119, 135);"/></g></svg>