<svg width="500" height="512" xmlns="http://www.w3.org/2000/svg">

 <g>
  <title>background</title>
  <rect fill="none" id="canvas_background" height="514" width="502" y="-1" x="-1"/>
 </g>
 <g>
  <title>Layer 1</title>
  <path fill="#4160c0" id="svg_1" d="m416.875,114.44141l-11.30469,-33.88672c-4.30468,-12.90625 -16.33984,-21.57813 -29.9414,-21.57813l-95.01172,0l0,-30.93359c0,-15.46094 -12.57031,-28.04297 -28.02735,-28.04297l-87.00781,0c-15.45312,0 -28.02734,12.58203 -28.02734,28.04297l0,30.93359l-95.00781,0c-13.60547,0 -25.64063,8.67188 -29.94532,21.57813l-11.30468,33.88672c-2.57422,7.71484 -1.26954,16.25781 3.48437,22.85547c4.75391,6.59765 12.44531,10.53906 20.57813,10.53906l11.8164,0l26.00781,321.60547c1.9336,23.86328 22.1836,42.55859 46.10938,42.55859l204.86328,0c23.92188,0 44.17578,-18.69531 46.10547,-42.5625l26.00781,-321.60156l6.54297,0c8.13281,0 15.82422,-3.94141 20.57813,-10.53516c4.7539,-6.59765 6.05859,-15.14453 3.48437,-22.85937zm-249.32031,-84.44141l83.0625,0l0,28.97656l-83.0625,0l0,-28.97656zm162.80469,437.01953c-0.67969,8.40235 -7.79688,14.98047 -16.20313,14.98047l-204.86328,0c-8.40625,0 -15.52344,-6.57812 -16.20313,-14.98047l-25.8164,-319.18359l288.89844,0l-25.8125,319.18359zm-298.56641,-349.18359l9.26953,-27.78906c0.21094,-0.64063 0.80859,-1.07032 1.48438,-1.07032l333.08203,0c0.67578,0 1.26953,0.42969 1.48437,1.07032l9.26953,27.78906l-354.58984,0zm0,0"/>
  <path fill="#4160c0" id="svg_2" d="m282.51563,465.95703c0.26562,0.01563 0.52734,0.01953 0.79296,0.01953c7.92579,0 14.55079,-6.21094 14.96485,-14.21875l14.08594,-270.39844c0.42968,-8.27343 -5.92969,-15.33203 -14.19922,-15.76171c-8.29297,-0.44141 -15.32813,5.92578 -15.76172,14.19921l-14.08203,270.39844c-0.42969,8.27344 5.92578,15.33203 14.19922,15.76172zm0,0"/>
  <path fill="#4160c0" id="svg_3" d="m120.56641,451.79297c0.4375,7.99609 7.05468,14.18359 14.96484,14.18359c0.27344,0 0.55469,-0.00781 0.83203,-0.02343c8.26953,-0.44922 14.60938,-7.51954 14.16016,-15.79297l-14.75391,-270.39844c-0.44922,-8.27344 -7.51953,-14.61328 -15.79297,-14.16016c-8.26953,0.44922 -14.60937,7.51953 -14.16015,15.79297l14.75,270.39844zm0,0"/>
  <path fill="#4160c0" id="svg_4" d="m209.25391,465.97656c8.28515,0 15,-6.71484 15,-15l0,-270.39843c0,-8.28516 -6.71485,-15 -15,-15s-15,6.71484 -15,15l0,270.39843c0,8.28516 6.71484,15 15,15zm0,0"/>
 </g>
</svg>