<svg width="512" height="512" xmlns="http://www.w3.org/2000/svg">

 <g>
  <title>background</title>
  <rect fill="none" id="canvas_background" height="602" width="802" y="-1" x="-1"/>
 </g>
 <g>
  <title>Layer 1</title>
  <path fill="#4160c0" id="svg_1" d="m498.82813,76.84375l-63.67188,-63.67578c-8.48828,-8.48438 -19.79297,-13.16406 -31.82812,-13.16797c-0.00782,0 -0.01172,0 -0.01954,0c-12.03515,0 -23.33203,4.67188 -31.8125,13.15234l-324.64843,324.64454c-2.66016,2.72265 -3.75391,6.59765 -4.54297,9.02343l-41.72656,146.04688c-1.4961,5.24219 -0.03516,10.88281 3.8164,14.73437c2.85547,2.85547 6.69141,4.39844 10.61328,4.39844c1.37891,0 2.76563,-0.1875 4.125,-0.57812l145.96485,-41.70313c0.43359,-0.125 6.88281,-2.34375 9.10547,-4.56641l324.64453,-324.64843c8.48828,-8.48438 13.15625,-19.78907 13.15234,-31.83203c-0.00391,-12.03516 -4.68359,-23.33985 -13.17187,-31.82813zm-461.96485,398.29297l28.02344,-98.07813l70.05469,70.05469l-98.07813,28.02344zm126.72656,-41.82422l-84.90234,-84.90234l260.95313,-260.95313l84.90234,84.90235l-260.95313,260.95312zm314.03125,-314.03125l-31.85156,31.85547l-84.90625,-84.90625l31.85547,-31.85156c2.8125,-2.8125 6.57422,-4.35938 10.58984,-4.35938l0.00782,0c4.02343,0 7.79297,1.55469 10.61328,4.375l63.67578,63.67578c5.85156,5.85157 5.85937,15.36719 0.01562,21.21094zm0,0"/>
 </g>
</svg>